<svg width="200" height="200" viewBox="0 0 200 200" fill="none" xmlns="http://www.w3.org/2000/svg">
<path fill-rule="evenodd" clip-rule="evenodd" d="M184.976 80.047C175.961 89.6912 161.186 97.0302 146.17 100C161.186 102.97 175.961 110.309 184.975 119.953L195.209 130.902L180.494 133.744C167.532 136.247 151.265 133.5 137.371 127.076C147.773 138.306 155.413 152.927 157.038 166.028L158.882 180.901L145.307 174.552C133.349 168.959 121.804 157.174 114.339 143.81C116.154 159.009 113.741 175.329 107.354 186.883L100.104 200L92.8537 186.883C86.4672 175.329 84.0537 159.009 85.8695 143.81C78.4044 157.174 66.8593 168.958 54.9011 174.552L41.3258 180.901L43.17 166.028C44.7946 152.927 52.4346 138.306 62.8374 127.076C48.943 133.5 32.676 136.248 19.7141 133.744L4.99878 130.902L15.2332 119.953C24.2481 110.308 39.0235 102.97 54.0397 100C39.023 97.0298 24.2481 89.6912 15.2332 80.047L4.99878 69.0981L19.7141 66.2558C32.676 63.7526 48.9435 66.5 62.8374 72.9237C52.4346 61.6944 44.7946 47.0726 43.17 33.9716L41.3258 19.0981L54.9016 25.4484C66.8597 31.0414 78.4049 42.826 85.87 56.1898C84.0542 40.9907 86.4676 24.6707 92.8541 13.1167L100.105 0L107.355 13.1167C113.742 24.6707 116.155 40.9907 114.339 56.1898C121.805 42.826 133.35 31.0419 145.308 25.4484L158.884 19.0981L157.039 33.9716C155.415 47.0726 147.775 61.6944 137.372 72.9237C151.266 66.5 167.533 63.7521 180.495 66.2558L195.211 69.0981L184.976 80.047ZM81.2531 118.696C91.5313 128.974 108.196 128.974 118.474 118.696C128.752 108.418 128.752 91.7533 118.474 81.4751C108.196 71.1969 91.5313 71.1969 81.2531 81.4751C70.9749 91.7533 70.9749 108.418 81.2531 118.696Z" fill="black"/>
</svg>
